<svg width="24" height="24" viewBox="0 0 24 24" fill="none" xmlns="http://www.w3.org/2000/svg">
<g clip-path="url(#clip0_1808_7804)">
<path d="M13.338 0.833002C12.9707 0.502438 12.4941 0.319527 12 0.319527C11.5059 0.319527 11.0293 0.502438 10.662 0.833002L0 10.429V20.829C0 21.6777 0.337142 22.4916 0.937258 23.0917C1.53737 23.6919 2.35131 24.029 3.2 24.029H20.8C21.6487 24.029 22.4626 23.6919 23.0627 23.0917C23.6629 22.4916 24 21.6777 24 20.829V10.429L13.338 0.833002ZM15 22.026H9V17C9 16.2044 9.31607 15.4413 9.87868 14.8787C10.4413 14.3161 11.2044 14 12 14C12.7956 14 13.5587 14.3161 14.1213 14.8787C14.6839 15.4413 15 16.2044 15 17V22.026ZM22 20.826C22 21.1443 21.8736 21.4495 21.6485 21.6745C21.4235 21.8996 21.1183 22.026 20.8 22.026H17V17C17 15.6739 16.4732 14.4021 15.5355 13.4645C14.5979 12.5268 13.3261 12 12 12C10.6739 12 9.40215 12.5268 8.46447 13.4645C7.52678 14.4021 7 15.6739 7 17V22.026H3.2C2.88174 22.026 2.57652 21.8996 2.35147 21.6745C2.12643 21.4495 2 21.1443 2 20.826V11.319L12 2.319L22 11.319V20.826Z" fill="#2A2A2A"/>
</g>
<defs>
<clipPath id="clip0_1808_7804">
<rect width="24" height="24" fill="white"/>
</clipPath>
</defs>
</svg>
