<svg width="24" height="24" viewBox="0 0 24 24" fill="none" xmlns="http://www.w3.org/2000/svg">
<g clip-path="url(#clip0_1808_7818)">
<path d="M14 18.997C14 19.549 13.553 19.997 13 19.997H12V22.997C12 23.549 11.552 23.997 11 23.997H7C6.448 23.997 6 23.553 6 23C6 22.447 6.448 22 7 22H10V19.997H5C2.243 19.997 0 17.754 0 14.997V6.997C0 4.24 2.243 2 5 2H11C11.552 2 12 2.445 12 2.997C12 3.549 11.552 3.997 11 3.997H5C3.346 3.997 2 5.343 2 6.997V14.997C2 16.651 3.346 18 5 18H13C13.553 18 14 18.445 14 18.997ZM24 2.998V5.997C24 7.651 22.654 8.997 21 8.997H18.148L15.717 10.803C15.412 11.029 15.005 11.063 14.668 10.892C14.332 10.722 14.001 10.316 14.001 9.94L13.999 3C14 1.345 15.346 0 17 0H21C21.801 0 22.555 0.31 23.121 0.876C23.687 1.442 24 2.196 24 2.998ZM22 2.998C22 2.731 21.896 2.479 21.707 2.29C21.519 2.102 21.268 1.998 21 1.998H17C16.449 1.998 16 2.448 16 2.999V8.1L17.221 7.194C17.394 7.066 17.603 7 17.818 7H21.001C21.553 7 22.001 6.548 22.001 5.997L22 2.998ZM4.064 14.648C3.871 15.165 4.133 15.741 4.65 15.934C5.167 16.129 5.744 15.866 5.937 15.348C6.239 14.541 7.068 13.998 8 13.998C8.932 13.998 9.761 14.54 10.063 15.348C10.255 15.87 10.846 16.128 11.35 15.934C11.868 15.741 12.13 15.165 11.936 14.648C11.344 13.063 9.762 11.999 8 11.999C6.238 11.999 4.656 13.064 4.064 14.648ZM10 9C10 7.895 9.105 7 8 7C6.895 7 6 7.895 6 9C6 10.105 6.895 11 8 11C9.105 11 10 10.105 10 9ZM19 19C16.661 19 14.619 20.539 14.034 22.742C13.892 23.276 14.211 23.823 14.744 23.965C15.264 24.108 15.827 23.794 15.968 23.256C16.321 21.927 17.567 21 19.001 21C20.435 21 21.68 21.928 22.034 23.257C22.177 23.79 22.727 24.107 23.258 23.966C23.792 23.824 24.109 23.276 23.968 22.743C23.381 20.54 21.339 19.001 19.002 19.001L19 19ZM19 18C17.07 18 15.5 16.43 15.5 14.5C15.5 12.57 17.07 11 19 11C20.93 11 22.5 12.57 22.5 14.5C22.5 16.43 20.93 18 19 18ZM19 16C19.827 16 20.5 15.327 20.5 14.5C20.5 13.673 19.827 13 19 13C18.173 13 17.5 13.673 17.5 14.5C17.5 15.327 18.173 16 19 16Z" fill="#2A2A2A"/>
</g>
<defs>
<clipPath id="clip0_1808_7818">
<rect width="24" height="24" fill="white"/>
</clipPath>
</defs>
</svg>
