<svg width="24" height="24" viewBox="0 0 24 24" fill="none" xmlns="http://www.w3.org/2000/svg">
<g clip-path="url(#clip0_1808_7807)">
<path d="M24 2.998V5.998C24 7.652 22.654 8.998 21 8.998H18.148L15.717 10.804C15.412 11.03 15.005 11.064 14.668 10.893C14.332 10.723 14.001 10.317 14.001 9.941L13.999 3.001C14 1.345 15.346 0 17 0H21C21.801 0 22.555 0.31 23.121 0.876C23.687 1.442 24 2.196 24 2.998ZM19 19C16.661 19 14.618 20.54 14.033 22.743C13.954 23.043 14.017 23.364 14.207 23.61C14.397 23.856 14.689 24 15 24H23C23.311 24 23.604 23.855 23.793 23.609C23.982 23.363 24.046 23.043 23.967 22.742C23.38 20.538 21.338 19 19 19ZM22.5 14.5C22.5 12.57 20.93 11 19 11C17.07 11 15.5 12.57 15.5 14.5C15.5 16.43 17.07 18 19 18C20.93 18 22.5 16.43 22.5 14.5ZM14.981 18.242C14.276 18.716 13.656 19.303 13.162 19.997H12V22.997C12 23.549 11.552 23.997 11 23.997H7C6.448 23.997 6 23.549 6 22.997C6 22.445 6.448 22 7 22H10V19.997H5C2.243 19.997 0 17.754 0 14.997V6.997C0 4.24 2.243 2 5 2H12.101C12.035 2.324 12 2.657 12 3L12.002 9.94C12.002 11.212 12.887 12.231 13.765 12.676C13.78 12.684 13.797 12.686 13.812 12.693C13.614 13.26 13.501 13.866 13.501 14.5C13.501 15.946 14.066 17.26 14.982 18.242H14.981ZM5 9C5 10.105 5.895 11 7 11C8.105 11 9 10.105 9 9C9 7.895 8.105 7 7 7C5.895 7 5 7.895 5 9ZM10.937 14.648C10.345 13.063 8.763 11.998 7 11.998C5.237 11.998 3.656 13.063 3.063 14.648C2.87 15.165 3.132 15.741 3.649 15.935C4.166 16.13 4.743 15.867 4.936 15.349C5.238 14.541 6.067 13.999 6.999 13.999C7.931 13.999 8.76 14.541 9.062 15.349C9.254 15.871 9.845 16.129 10.349 15.935C10.867 15.742 11.129 15.165 10.935 14.648H10.937Z" fill="#235DFF"/>
</g>
<defs>
<clipPath id="clip0_1808_7807">
<rect width="24" height="24" fill="white"/>
</clipPath>
</defs>
</svg>
